<svg width="88" height="24" viewBox="0 0 88 24" fill="none" xmlns="http://www.w3.org/2000/svg">
<g id="Frame" clip-path="url(#clip0_1_10598)">
<path id="Vector" d="M10.3429 2.93744C11.9334 3.2404 13.322 4.12405 14.2814 5.36115C15.1903 6.52251 15.7457 8.01208 15.7457 9.60264C15.7457 10.6378 15.165 12.2283 14.1047 14.1723C14.4329 14.7278 14.7863 15.3337 15.1903 15.9901C16.5284 13.6674 17.5383 11.3194 17.5383 9.60264C17.5383 7.65862 16.9323 5.86609 15.8972 4.42701C14.9126 3.06367 13.5745 1.97805 11.9839 1.39737C11.1255 1.04392 10.1661 0.867188 9.15627 0.867188C4.51082 0.867188 0.749023 4.78047 0.749023 9.60264C0.749023 13.112 4.96527 19.1965 7.46472 22.5038C7.86867 23.0593 8.49985 23.3622 9.15627 23.3622C9.81269 23.3622 10.4439 23.0593 10.8478 22.5038C11.378 21.8222 11.9587 21.0143 12.5899 20.1306C12.2112 19.5752 11.8577 19.0198 11.5042 18.4643C10.8731 19.3732 10.1914 20.3074 9.45923 21.292C9.333 21.4687 9.03003 21.4687 8.87855 21.292C4.91478 16.0659 2.56681 11.6981 2.56681 9.60264C2.56681 5.86609 5.5207 2.8112 9.15627 2.8112C9.56022 2.8112 9.93892 2.8617 10.3429 2.93744Z" fill="white"/>
<path id="Vector_2" d="M14.1794 20.1306C14.7854 21.0143 15.3913 21.8222 15.9215 22.5038C16.3254 23.0593 16.9566 23.3622 17.613 23.3622C18.2694 23.3622 18.9006 23.0593 19.3046 22.5038C21.7788 19.1965 25.995 13.0867 25.995 9.60264C25.995 4.78047 22.2332 0.867188 17.5878 0.867188C16.5779 0.867188 15.6185 1.04392 14.7349 1.39737C15.3408 1.85182 15.9215 2.35676 16.4012 2.93744C16.7799 2.8617 17.1838 2.8112 17.5878 2.8112C21.2233 2.8112 24.1772 5.84084 24.1772 9.60264C24.1772 11.6981 21.8293 16.0659 17.8655 21.292C17.7392 21.4687 17.4363 21.4687 17.2848 21.292C16.5526 20.3074 15.871 19.3732 15.2398 18.4643C14.1794 16.899 13.2705 15.4599 12.5889 14.1723C11.5285 12.2031 10.9731 10.6125 10.9731 9.60264C10.9731 7.98684 11.5285 6.52251 12.4374 5.36115C11.9577 4.9572 11.4023 4.65423 10.7963 4.42701C9.7612 5.86609 9.15527 7.65862 9.15527 9.60264C9.15527 11.3194 10.1652 13.6674 11.5032 15.9901C12.3364 17.4292 13.2705 18.843 14.1794 20.1306Z" fill="white"/>
<path id="Vector_3" d="M39.5509 7.85782V14.9775C39.5509 18.2596 37.8089 19.9764 34.4511 19.9764C31.068 19.9764 29.4521 18.2848 29.4521 14.9522V7.75683C29.4521 7.30239 29.8056 6.89844 30.3358 6.89844C30.8912 6.89844 31.2699 7.30239 31.2699 7.75683V14.9017C31.2699 17.3507 32.2798 18.3606 34.4511 18.3606C36.597 18.3606 37.7332 17.4012 37.7332 14.9522V7.85782C37.7332 7.32764 38.1119 6.89844 38.6168 6.89844C39.1722 6.89844 39.5509 7.32764 39.5509 7.85782Z" fill="white"/>
<path id="Vector_4" d="M49.9288 15.3581C49.9288 18.3625 48.2877 19.9783 45.3591 19.9783C44.6016 19.9783 43.9705 19.8521 43.4655 19.6753V22.3263C43.4655 22.7807 43.1373 23.1594 42.5819 23.1594C42.0517 23.1594 41.6982 22.7807 41.6982 22.3263V11.773C41.6982 11.3186 42.0265 11.0156 42.4557 11.0156C42.9353 11.0156 43.1626 11.3186 43.2131 11.773L43.2636 12.4547C43.7937 11.6216 44.7026 11.0156 46.066 11.0156C48.4644 11.0156 49.9288 12.4042 49.9288 15.3581ZM48.1615 15.4591C48.1615 13.4141 47.2526 12.5304 45.763 12.5304C44.4249 12.5304 43.4655 13.4646 43.4655 14.6764H43.4403V18.11C43.92 18.312 44.5007 18.514 45.2581 18.514C47.0506 18.4887 48.1615 17.6051 48.1615 15.4591Z" fill="white"/>
<path id="Vector_5" d="M62.4276 10.3068C62.4276 10.7865 62.0741 11.0389 61.6701 11.0389C61.2157 11.0389 61.0137 10.8875 60.8875 10.4835C60.6098 9.85233 60.0543 8.489 57.8578 8.489C55.3836 8.489 53.7678 10.0543 53.7678 13.2859C53.7678 16.669 55.5099 18.3353 58.3375 18.3353C59.7766 18.3353 60.6855 17.9061 61.1147 17.7546C61.2914 17.7041 61.4429 17.6537 61.6449 17.6537C62.0741 17.6537 62.3518 17.9819 62.3518 18.3858C62.3518 18.815 62.1751 19.017 61.8469 19.219C61.039 19.6734 59.5241 19.9764 58.1356 19.9764C54.298 19.9764 51.9248 17.7041 51.9248 13.4122C51.9248 9.19591 54.2475 6.89844 57.8074 6.89844C61.0137 6.89844 62.4276 8.79196 62.4276 10.3068Z" fill="white"/>
<path id="Vector_6" d="M64.3193 8.33883C64.3193 7.65716 64.799 7.15222 65.4554 7.15222C66.1371 7.15222 66.5916 7.65716 66.5916 8.33883C66.5916 9.0205 66.1371 9.52544 65.4554 9.52544C64.799 9.52544 64.3193 9.0205 64.3193 8.33883ZM66.2886 11.7977V19.1193C66.2886 19.5737 65.9604 19.9524 65.405 19.9524C64.8748 19.9524 64.5213 19.5737 64.5213 19.1193V11.7977C64.5213 11.3432 64.8748 10.9645 65.405 10.9645C65.9351 10.9898 66.2886 11.3432 66.2886 11.7977Z" fill="white"/>
<path id="Vector_7" d="M71.2361 12.6062V17.3022C71.2361 18.1858 71.64 18.413 72.2459 18.413C72.3974 18.413 72.5489 18.3878 72.8519 18.3625C73.3568 18.2868 73.6093 18.6655 73.6093 19.0442C73.6093 19.3977 73.4073 19.7511 72.9781 19.8268C72.6246 19.8773 72.2207 19.9278 71.8167 19.9278C70.2767 19.9278 69.5193 19.3724 69.5193 17.4284V12.6062H68.6356C68.2569 12.6062 67.9287 12.3032 67.9287 11.874C67.9287 11.4196 68.2569 11.1419 68.6356 11.1419H69.5193V9.45034C69.5193 8.99589 69.8727 8.61719 70.4029 8.61719C70.9331 8.61719 71.2613 8.99589 71.2613 9.45034V11.1419H72.9276C73.3316 11.1419 73.6345 11.4196 73.6345 11.874C73.6345 12.3032 73.3316 12.6062 72.9276 12.6062H71.2361Z" fill="white"/>
<path id="Vector_8" d="M82.8272 11.7223C82.8272 11.8737 82.7767 12.0505 82.701 12.2019L78.9644 21.1141C78.3332 22.6037 77.3991 23.1086 76.0358 23.1086C75.7328 23.1086 75.5813 23.0834 75.4551 23.0834C75.0006 23.0329 74.7229 22.7552 74.7229 22.326C74.7229 21.922 74.9754 21.5686 75.4298 21.5938C75.5561 21.5938 75.6823 21.6191 75.96 21.6191C76.8184 21.6191 77.3233 21.3414 77.5758 20.6597L77.9545 19.7003L74.7229 12.2272C74.6472 12.0757 74.5967 11.899 74.5967 11.7475C74.5967 11.2426 75.0006 10.9648 75.4298 10.9648C75.758 10.9648 76.1115 11.1668 76.263 11.5455L78.7877 17.63L81.2114 11.5203C81.3629 11.1416 81.6658 10.9901 82.0445 10.9901C82.398 10.9648 82.8272 11.2173 82.8272 11.7223Z" fill="white"/>
</g>
<defs>
<clipPath id="clip0_1_10598">
<rect width="87.3041" height="23" fill="white" transform="translate(0.495117 0.613281)"/>
</clipPath>
</defs>
</svg>
