<svg width="64" height="19" viewBox="0 0 64 19" fill="none" xmlns="http://www.w3.org/2000/svg">
<g id="clutch-logo 1" clip-path="url(#clip0_1_10586)">
<path id="Vector" d="M16.8896 0.71875H19.5898V18.1318H16.8896V0.71875ZM29.424 12.7621C29.424 15.4623 27.2147 15.6771 26.5397 15.6771C24.8521 15.6771 24.6066 14.0969 24.6066 13.1457V6.41058H21.8911V13.1303C21.8758 14.8026 22.3514 16.1834 23.2719 17.1039C24.085 17.917 25.2203 18.3619 26.5397 18.3619C27.4755 18.3619 28.5648 18.0704 29.424 17.4261V18.1318H32.1395V6.41058H29.424V12.7621ZM38.0001 2.46772H35.2846V6.41058H33.3822V8.97268H35.2846V18.1318H38.0001V8.97268H40.2246V6.41058H38.0001V2.46772ZM49.0002 14.8026C48.3865 15.3549 47.5734 15.6617 46.6836 15.6617C44.7198 15.6617 43.2777 14.2196 43.2777 12.2405C43.2777 10.2614 44.6738 8.88063 46.6836 8.88063C47.5581 8.88063 48.3865 9.17212 49.0155 9.72443L49.4451 10.0926L51.3475 8.19024L50.8719 7.76067C49.7519 6.74811 48.2638 6.18046 46.6836 6.18046C43.1549 6.18046 40.5928 8.72721 40.5928 12.2252C40.5928 15.7078 43.2163 18.3466 46.6836 18.3466C48.2945 18.3466 49.798 17.7789 50.9026 16.751L51.3628 16.3214L49.4298 14.419L49.0002 14.8026ZM61.5345 7.43849C60.7214 6.62537 59.5861 6.18046 58.2667 6.18046C57.3308 6.18046 56.2416 6.47195 55.3824 7.11631V0.71875H52.6669V18.1318H55.3824V11.7802C55.3824 9.08007 57.5916 8.86528 58.2667 8.86528C59.9543 8.86528 60.1998 10.4455 60.1998 11.3967V18.1318H62.9153V11.412C62.9306 9.73977 62.455 8.359 61.5345 7.43849Z" fill="white"/>
<path id="Vector_2" d="M46.5903 14.3153C47.7172 14.3153 48.6307 13.4018 48.6307 12.2748C48.6307 11.1479 47.7172 10.2344 46.5903 10.2344C45.4634 10.2344 44.5498 11.1479 44.5498 12.2748C44.5498 13.4018 45.4634 14.3153 46.5903 14.3153Z" fill="#1ABC9C"/>
<path id="Vector_3" d="M12.868 13.9606C11.794 15.0652 10.3366 15.6635 8.80238 15.6635C5.65729 15.6635 3.37135 13.1935 3.37135 9.80295C3.37135 6.39706 5.65729 3.92702 8.80238 3.92702C10.3212 3.92702 11.7634 4.52535 12.8526 5.61462L13.2822 6.04419L15.1693 4.15714L14.755 3.72757C13.1902 2.11667 11.073 1.24219 8.80238 1.24219C4.16913 1.24219 0.686523 4.92424 0.686523 9.8183C0.686523 14.697 4.18447 18.3637 8.80238 18.3637C11.0883 18.3637 13.2055 17.4739 14.7704 15.863L15.1846 15.4334L13.3129 13.5157L12.868 13.9606Z" fill="white"/>
</g>
<defs>
<clipPath id="clip0_1_10586">
<rect width="62.5488" height="17.8733" fill="white" transform="translate(0.50293 0.613281)"/>
</clipPath>
</defs>
</svg>
