<svg width="41" height="41" viewBox="0 0 41 41" fill="none" xmlns="http://www.w3.org/2000/svg">
<g clip-path="url(#clip0_1_2)">
<path d="M33.5925 0.251953H7.32812C3.46213 0.251953 0.328125 3.38596 0.328125 7.25195V33.5072C0.328125 37.3731 3.46213 40.5072 7.32812 40.5072H33.5925C37.4585 40.5072 40.5925 37.3731 40.5925 33.5072V7.25195C40.5925 3.38596 37.4585 0.251953 33.5925 0.251953Z" fill="#0AADE5"/>
<path d="M29.4407 10.252H11.4459C11.1494 10.252 10.8651 10.3697 10.6555 10.5792C10.4459 10.7887 10.3281 11.0729 10.3281 11.3692V29.3559C10.3281 29.6522 10.4459 29.9363 10.6555 30.1459C10.8651 30.3554 11.1494 30.4731 11.4459 30.4731H21.1318V22.6438H18.4968V19.5894H21.1318V17.3421C21.1318 14.7295 22.7298 13.3064 25.0589 13.3064C25.8467 13.3051 26.634 13.3448 27.4177 13.4253V16.1569H25.7984C24.5234 16.1569 24.2854 16.7601 24.2854 17.6437V19.5894H27.3114L26.9162 22.6438H24.2854V30.4731H29.4407C29.7372 30.4731 30.0215 30.3554 30.2311 30.1459C30.4407 29.9363 30.5585 29.6522 30.5585 29.3559V11.3692C30.5585 11.0729 30.4407 10.7887 30.2311 10.5792C30.0215 10.3697 29.7372 10.252 29.4407 10.252Z" fill="white"/>
</g>
<defs>
<clipPath id="clip0_1_2">
<rect width="41" height="41" fill="white"/>
</clipPath>
</defs>
</svg>
