<svg width="30" height="30" viewBox="0 0 30 30" fill="none" xmlns="http://www.w3.org/2000/svg">
<g id="google-icon 1" clip-path="url(#clip0_1_10482)">
<g id="Group">
<g id="Clip path group">
<mask id="mask0_1_10482" style="mask-type:luminance" maskUnits="userSpaceOnUse" x="0" y="0" width="30" height="30">
<g id="B">
<path id="Vector" d="M28.9715 12.4753H15.4619V18.0768H23.2381C22.5132 21.6355 19.4818 23.6784 15.4619 23.6784C10.7171 23.6784 6.89489 19.8561 6.89489 15.1113C6.89489 10.3665 10.7171 6.5443 15.4619 6.5443C17.5048 6.5443 19.35 7.26921 20.7998 8.45541L25.0175 4.23779C22.4473 1.99719 19.1523 0.613281 15.4619 0.613281C7.42209 0.613281 0.963867 7.0715 0.963867 15.1113C0.963867 23.1512 7.42209 29.6094 15.4619 29.6094C22.7109 29.6094 29.301 24.3374 29.301 15.1113C29.301 14.2546 29.1692 13.332 28.9715 12.4753Z" fill="white"/>
</g>
</mask>
<g mask="url(#mask0_1_10482)">
<path id="Vector_2" d="M-0.352539 23.677V6.54297L10.8505 15.11L-0.352539 23.677Z" fill="white"/>
</g>
</g>
<g id="Clip path group_2">
<mask id="mask1_1_10482" style="mask-type:luminance" maskUnits="userSpaceOnUse" x="0" y="0" width="30" height="30">
<g id="B_2">
<path id="Vector_3" d="M28.9715 12.4753H15.4619V18.0768H23.2381C22.5132 21.6355 19.4818 23.6784 15.4619 23.6784C10.7171 23.6784 6.89489 19.8561 6.89489 15.1113C6.89489 10.3665 10.7171 6.5443 15.4619 6.5443C17.5048 6.5443 19.35 7.26921 20.7998 8.45541L25.0175 4.23779C22.4473 1.99719 19.1523 0.613281 15.4619 0.613281C7.42209 0.613281 0.963867 7.0715 0.963867 15.1113C0.963867 23.1512 7.42209 29.6094 15.4619 29.6094C22.7109 29.6094 29.301 24.3374 29.301 15.1113C29.301 14.2546 29.1692 13.332 28.9715 12.4753Z" fill="white"/>
</g>
</mask>
<g mask="url(#mask1_1_10482)">
<path id="Vector_4" d="M-0.352539 6.5459L10.8505 15.1129L15.4635 11.093L31.2796 8.52291V-0.703125H-0.352539V6.5459Z" fill="white"/>
</g>
</g>
<g id="Clip path group_3">
<mask id="mask2_1_10482" style="mask-type:luminance" maskUnits="userSpaceOnUse" x="0" y="0" width="30" height="30">
<g id="B_3">
<path id="Vector_5" d="M28.9715 12.4753H15.4619V18.0768H23.2381C22.5132 21.6355 19.4818 23.6784 15.4619 23.6784C10.7171 23.6784 6.89489 19.8561 6.89489 15.1113C6.89489 10.3665 10.7171 6.5443 15.4619 6.5443C17.5048 6.5443 19.35 7.26921 20.7998 8.45541L25.0175 4.23779C22.4473 1.99719 19.1523 0.613281 15.4619 0.613281C7.42209 0.613281 0.963867 7.0715 0.963867 15.1113C0.963867 23.1512 7.42209 29.6094 15.4619 29.6094C22.7109 29.6094 29.301 24.3374 29.301 15.1113C29.301 14.2546 29.1692 13.332 28.9715 12.4753Z" fill="white"/>
</g>
</mask>
<g mask="url(#mask2_1_10482)">
<path id="Vector_6" d="M-0.352539 23.68L19.4175 8.52291L24.6237 9.18191L31.2796 -0.703125V30.929H-0.352539V23.68Z" fill="white"/>
</g>
</g>
<g id="Clip path group_4">
<mask id="mask3_1_10482" style="mask-type:luminance" maskUnits="userSpaceOnUse" x="0" y="0" width="30" height="30">
<g id="B_4">
<path id="Vector_7" d="M28.9715 12.4753H15.4619V18.0768H23.2381C22.5132 21.6355 19.4818 23.6784 15.4619 23.6784C10.7171 23.6784 6.89489 19.8561 6.89489 15.1113C6.89489 10.3665 10.7171 6.5443 15.4619 6.5443C17.5048 6.5443 19.35 7.26921 20.7998 8.45541L25.0175 4.23779C22.4473 1.99719 19.1523 0.613281 15.4619 0.613281C7.42209 0.613281 0.963867 7.0715 0.963867 15.1113C0.963867 23.1512 7.42209 29.6094 15.4619 29.6094C22.7109 29.6094 29.301 24.3374 29.301 15.1113C29.301 14.2546 29.1692 13.332 28.9715 12.4753Z" fill="white"/>
</g>
</mask>
<g mask="url(#mask3_1_10482)">
<path id="Vector_8" d="M31.279 30.9261L10.8499 15.11L8.21387 13.133L31.279 6.54297V30.9261Z" fill="white"/>
</g>
</g>
</g>
</g>
<defs>
<clipPath id="clip0_1_10482">
<rect width="28.9961" height="28.9961" fill="white" transform="translate(0.510742 0.613281)"/>
</clipPath>
</defs>
</svg>
