<svg width="42" height="41" viewBox="0 0 42 41" fill="none" xmlns="http://www.w3.org/2000/svg">
<g clip-path="url(#clip0_1_5)">
<path d="M34.0769 0.251953H7.8125C3.94651 0.251953 0.8125 3.38596 0.8125 7.25195V33.5072C0.8125 37.3731 3.94651 40.5072 7.8125 40.5072H34.0769C37.9429 40.5072 41.0769 37.3731 41.0769 33.5072V7.25195C41.0769 3.38596 37.9429 0.251953 34.0769 0.251953Z" fill="#0AADE5"/>
<path d="M20.9447 12.0744C23.6435 12.0744 23.9665 12.0744 25.0333 12.1339C25.675 12.1395 26.3108 12.2574 26.9118 12.4822C27.3468 12.6511 27.742 12.9087 28.072 13.2385C28.402 13.5684 28.6596 13.9633 28.8286 14.3981C29.0536 14.9989 29.1715 15.6344 29.1771 16.2758C29.2281 17.3421 29.2366 17.665 29.2366 20.3625C29.2366 23.0601 29.2366 23.383 29.1771 24.4493C29.1715 25.0907 29.0536 25.7262 28.8286 26.3269C28.6596 26.7618 28.402 27.1567 28.072 27.4866C27.742 27.8164 27.3468 28.074 26.9118 28.2428C26.3108 28.4677 25.675 28.5856 25.0333 28.5912C23.9665 28.6422 23.6478 28.6507 20.9447 28.6507C18.2417 28.6507 17.9229 28.6507 16.8561 28.5912C16.2144 28.5856 15.5786 28.4677 14.9776 28.2428C14.5426 28.074 14.1474 27.8164 13.8174 27.4866C13.4874 27.1567 13.2298 26.7618 13.0608 26.3269C12.8358 25.7262 12.7179 25.0907 12.7123 24.4493C12.6613 23.383 12.6528 23.0601 12.6528 20.3625C12.6528 17.665 12.6528 17.3421 12.7123 16.2758C12.7179 15.6344 12.8358 14.9989 13.0608 14.3981C13.2298 13.9633 13.4874 13.5684 13.8174 13.2385C14.1474 12.9087 14.5426 12.6511 14.9776 12.4822C15.5786 12.2574 16.2144 12.1395 16.8561 12.1339C17.9229 12.0829 18.2459 12.0744 20.9447 12.0744ZM20.9447 10.252C18.1992 10.252 17.8549 10.252 16.7754 10.3114C15.9358 10.3288 15.1051 10.4882 14.3188 10.783C13.6412 11.041 13.0259 11.4393 12.5131 11.9518C12.0004 12.4643 11.6019 13.0794 11.3438 13.7567C11.0489 14.5426 10.8894 15.3729 10.872 16.2121C10.8253 17.2911 10.8125 17.6352 10.8125 20.3795C10.8125 23.1238 10.8125 23.4679 10.872 24.547C10.8894 25.3862 11.0489 26.2164 11.3438 27.0024C11.6019 27.6797 12.0004 28.2948 12.5131 28.8073C13.0259 29.3198 13.6412 29.7181 14.3188 29.9761C15.1051 30.2708 15.9358 30.4303 16.7754 30.4476C17.8549 30.4944 18.1992 30.5071 20.9447 30.5071C23.6903 30.5071 24.0345 30.5071 25.114 30.4476C25.9536 30.4303 26.7843 30.2708 27.5706 29.9761C28.2482 29.7181 28.8635 29.3198 29.3763 28.8073C29.889 28.2948 30.2875 27.6797 30.5456 27.0024C30.8405 26.2164 31 25.3862 31.0174 24.547C31.0641 23.4679 31.0769 23.1238 31.0769 20.3795C31.0769 17.6352 31.0769 17.2911 31.0174 16.2121C31 15.3729 30.8405 14.5426 30.5456 13.7567C30.2875 13.0794 29.889 12.4643 29.3763 11.9518C28.8635 11.4393 28.2482 11.041 27.5706 10.783C26.7843 10.4882 25.9536 10.3288 25.114 10.3114C24.0345 10.2647 23.6903 10.252 20.9447 10.252Z" fill="white"/>
<path d="M20.9436 15.166C19.9164 15.166 18.9123 15.4705 18.0582 16.0409C17.2041 16.6113 16.5384 17.4221 16.1453 18.3707C15.7522 19.3192 15.6494 20.363 15.8498 21.37C16.0502 22.377 16.5448 23.302 17.2712 24.028C17.9975 24.754 18.9229 25.2484 19.9304 25.4487C20.9378 25.649 21.9821 25.5462 22.9311 25.1533C23.8801 24.7604 24.6913 24.095 25.2619 23.2413C25.8326 22.3877 26.1372 21.384 26.1372 20.3573C26.1372 18.9805 25.59 17.66 24.6161 16.6865C23.6421 15.713 22.321 15.166 20.9436 15.166ZM20.9436 23.726C20.277 23.726 19.6254 23.5285 19.0711 23.1583C18.5169 22.7881 18.0849 22.262 17.8298 21.6464C17.5747 21.0309 17.508 20.3535 17.638 19.7C17.7681 19.0466 18.0891 18.4463 18.5604 17.9752C19.0318 17.504 19.6323 17.1832 20.2861 17.0532C20.9399 16.9232 21.6175 16.9899 22.2334 17.2449C22.8492 17.4999 23.3756 17.9317 23.7459 18.4857C24.1163 19.0397 24.3139 19.691 24.3139 20.3573C24.3139 21.2507 23.9588 22.1076 23.3268 22.7393C22.6947 23.3711 21.8375 23.726 20.9436 23.726Z" fill="white"/>
<path d="M26.3405 16.178C27.0118 16.178 27.556 15.634 27.556 14.963C27.556 14.292 27.0118 13.748 26.3405 13.748C25.6692 13.748 25.125 14.292 25.125 14.963C25.125 15.634 25.6692 16.178 26.3405 16.178Z" fill="white"/>
</g>
<defs>
<clipPath id="clip0_1_5">
<rect width="42" height="41" fill="white"/>
</clipPath>
</defs>
</svg>
