<svg width="41" height="41" viewBox="0 0 41 41" fill="none" xmlns="http://www.w3.org/2000/svg">
<g clip-path="url(#clip0_1_10)">
<path d="M33.2644 0H7C3.13401 0 0 3.13401 0 7V33.2552C0 37.1212 3.13401 40.2552 7 40.2552H33.2644C37.1304 40.2552 40.2644 37.1212 40.2644 33.2552V7C40.2644 3.13401 37.1304 0 33.2644 0Z" fill="#0AADE5"/>
<path d="M27.6927 27.5H22.865L12.3717 12.5H17.1995L27.6927 27.5ZM23.4402 26.228H25.3625L16.6242 13.772H14.702L23.4402 26.228Z" fill="white"/>
<path d="M13.8995 27.5L19.3017 21.242L18.5952 20.3053L12.3672 27.5H13.8995Z" fill="white"/>
<path d="M20.3375 18.2908L21.0162 19.2575L26.852 12.5H25.352L20.3375 18.2908Z" fill="white"/>
</g>
<defs>
<clipPath id="clip0_1_10">
<rect width="41" height="41" fill="white"/>
</clipPath>
</defs>
</svg>
