<svg width="109" height="31" viewBox="0 0 109 31" fill="none" xmlns="http://www.w3.org/2000/svg">
<g id="Frame" clip-path="url(#clip0_1_10626)">
<path id="Vector" d="M13.4434 3.73939C15.5181 4.13456 17.3292 5.28714 18.5806 6.90075C19.7661 8.41557 20.4906 10.3585 20.4906 12.4331C20.4906 13.7833 19.7332 15.8579 18.3501 18.3936C18.7782 19.1181 19.2392 19.9084 19.7661 20.7646C21.5115 17.735 22.8287 14.6724 22.8287 12.4331C22.8287 9.89746 22.0384 7.55937 20.6882 5.68231C19.4039 3.90405 17.6586 2.48802 15.5839 1.73061C14.4643 1.26958 13.2129 1.03906 11.8957 1.03906C5.83638 1.03906 0.929688 6.14334 0.929688 12.4331C0.929688 17.0105 6.42914 24.9469 9.68929 29.2608C10.2162 29.9853 11.0395 30.3804 11.8957 30.3804C12.7519 30.3804 13.5751 29.9853 14.102 29.2608C14.7936 28.3717 15.551 27.3179 16.3743 26.1653C15.8803 25.4408 15.4193 24.7163 14.9582 23.9919C14.135 25.1774 13.2458 26.3958 12.2908 27.6801C12.1262 27.9106 11.731 27.9106 11.5334 27.6801C6.36328 20.8634 3.30071 15.1664 3.30071 12.4331C3.30071 7.55937 7.15362 3.57474 11.8957 3.57474C12.4226 3.57474 12.9165 3.6406 13.4434 3.73939Z" fill="white"/>
<path id="Vector_2" d="M18.4439 26.1653C19.2342 27.3179 20.0245 28.3717 20.7161 29.2608C21.243 29.9853 22.0663 30.3804 22.9225 30.3804C23.7787 30.3804 24.6019 29.9853 25.1288 29.2608C28.356 24.9469 33.8555 16.9776 33.8555 12.4331C33.8555 6.14334 28.9488 1.03906 22.8895 1.03906C21.5723 1.03906 20.3209 1.26958 19.1683 1.73061C19.9587 2.32337 20.7161 2.98198 21.3418 3.73939C21.8357 3.6406 22.3626 3.57474 22.8895 3.57474C27.6316 3.57474 31.4845 7.52644 31.4845 12.4331C31.4845 15.1664 28.4219 20.8634 23.2518 27.6801C23.0871 27.9106 22.6919 27.9106 22.4944 27.6801C21.5394 26.3958 20.6502 25.1774 19.827 23.9919C18.4439 21.9501 17.2584 20.0731 16.3692 18.3936C14.9861 15.825 14.2616 13.7504 14.2616 12.4331C14.2616 10.3256 14.9861 8.41557 16.1716 6.90075C15.5459 6.37386 14.8215 5.97869 14.0311 5.68231C12.681 7.55937 11.8906 9.89746 11.8906 12.4331C11.8906 14.6724 13.2079 17.735 14.9532 20.7646C16.0399 22.6417 17.2584 24.4858 18.4439 26.1653Z" fill="white"/>
<path id="Vector_3" d="M51.5395 10.1615V19.448C51.5395 23.729 49.2673 25.9683 44.8875 25.9683C40.4748 25.9683 38.3672 23.762 38.3672 19.4151V10.0298C38.3672 9.43705 38.8282 8.91016 39.5198 8.91016C40.2442 8.91016 40.7382 9.43705 40.7382 10.0298V19.3492C40.7382 22.5435 42.0554 23.8608 44.8875 23.8608C47.6866 23.8608 49.1685 22.6094 49.1685 19.4151V10.1615C49.1685 9.46998 49.6625 8.91016 50.3211 8.91016C51.0456 8.91016 51.5395 9.46998 51.5395 10.1615Z" fill="white"/>
<path id="Vector_4" d="M65.0753 19.9454C65.0753 23.8641 62.9348 25.9717 59.1148 25.9717C58.1269 25.9717 57.3036 25.807 56.645 25.5765V29.0343C56.645 29.627 56.2169 30.121 55.4924 30.121C54.8009 30.121 54.3398 29.627 54.3398 29.0343V15.2692C54.3398 14.6764 54.7679 14.2812 55.3278 14.2812C55.9535 14.2812 56.2498 14.6764 56.3157 15.2692L56.3816 16.1583C57.0731 15.0716 58.2586 14.2812 60.0369 14.2812C63.1653 14.2812 65.0753 16.0924 65.0753 19.9454ZM62.7701 20.0771C62.7701 17.4097 61.5846 16.2571 59.6417 16.2571C57.8964 16.2571 56.645 17.4755 56.645 19.0562H56.6121V23.5348C57.2378 23.7983 57.9952 24.0617 58.9831 24.0617C61.3212 24.0288 62.7701 22.8762 62.7701 20.0771Z" fill="white"/>
<path id="Vector_5" d="M81.3789 13.3558C81.3789 13.9815 80.9179 14.3108 80.391 14.3108C79.7982 14.3108 79.5348 14.1132 79.3701 13.5863C79.0079 12.7631 78.2834 10.9848 75.4184 10.9848C72.1912 10.9848 70.0836 13.0265 70.0836 17.2417C70.0836 21.6544 72.3559 23.8278 76.0441 23.8278C77.9212 23.8278 79.1067 23.268 79.6665 23.0704C79.897 23.0046 80.0946 22.9387 80.3581 22.9387C80.9179 22.9387 81.2801 23.3668 81.2801 23.8937C81.2801 24.4535 81.0496 24.717 80.6215 24.9804C79.5677 25.5732 77.5919 25.9683 75.7807 25.9683C70.7752 25.9683 67.6797 23.0046 67.6797 17.4063C67.6797 11.9069 70.7093 8.91016 75.3526 8.91016C79.5348 8.91016 81.3789 11.38 81.3789 13.3558Z" fill="white"/>
<path id="Vector_6" d="M83.8477 10.7899C83.8477 9.9008 84.4733 9.24219 85.3295 9.24219C86.2187 9.24219 86.8114 9.9008 86.8114 10.7899C86.8114 11.6791 86.2187 12.3377 85.3295 12.3377C84.4733 12.3377 83.8477 11.6791 83.8477 10.7899ZM86.4163 15.3015V24.8514C86.4163 25.4442 85.9882 25.9381 85.2637 25.9381C84.5721 25.9381 84.1111 25.4442 84.1111 24.8514V15.3015C84.1111 14.7087 84.5721 14.2147 85.2637 14.2147C85.9552 14.2477 86.4163 14.7087 86.4163 15.3015Z" fill="white"/>
<path id="Vector_7" d="M92.8686 16.3515V22.4766C92.8686 23.6292 93.3955 23.9256 94.1859 23.9256C94.3834 23.9256 94.581 23.8927 94.9762 23.8597C95.6348 23.761 95.9641 24.2549 95.9641 24.7489C95.9641 25.2099 95.7007 25.6709 95.1409 25.7697C94.6798 25.8356 94.1529 25.9015 93.626 25.9015C91.6173 25.9015 90.6293 25.177 90.6293 22.6413V16.3515H89.4767C88.9828 16.3515 88.5547 15.9563 88.5547 15.3965C88.5547 14.8038 88.9828 14.4415 89.4767 14.4415H90.6293V12.2352C90.6293 11.6424 91.0904 11.1484 91.7819 11.1484C92.4735 11.1484 92.9016 11.6424 92.9016 12.2352V14.4415H95.075C95.6019 14.4415 95.9971 14.8038 95.9971 15.3965C95.9971 15.9563 95.6019 16.3515 95.075 16.3515H92.8686Z" fill="white"/>
<path id="Vector_8" d="M107.985 15.1989C107.985 15.3964 107.92 15.627 107.821 15.8245L102.947 27.4491C102.124 29.3921 100.905 30.0507 99.1271 30.0507C98.7319 30.0507 98.5343 30.0177 98.3696 30.0177C97.7769 29.9519 97.4147 29.5896 97.4147 29.0298C97.4147 28.5029 97.744 28.0419 98.3367 28.0748C98.5014 28.0748 98.666 28.1078 99.0283 28.1078C100.148 28.1078 100.807 27.7455 101.136 26.8564L101.63 25.605L97.4147 15.8575C97.3159 15.6599 97.25 15.4294 97.25 15.2318C97.25 14.5732 97.7769 14.2109 98.3367 14.2109C98.7648 14.2109 99.2259 14.4744 99.4234 14.9683L102.717 22.9047L105.878 14.9354C106.075 14.4415 106.471 14.2439 106.965 14.2439C107.426 14.2109 107.985 14.5402 107.985 15.1989Z" fill="white"/>
</g>
<defs>
<clipPath id="clip0_1_10626">
<rect width="107.902" height="30" fill="white" transform="translate(0.597656 0.710938)"/>
</clipPath>
</defs>
</svg>
