<svg width="106" height="31" viewBox="0 0 106 31" fill="none" xmlns="http://www.w3.org/2000/svg">
<g id="clutch-logo 1" clip-path="url(#clip0_1_10621)">
<path id="Vector" d="M27.9023 0.890625H32.4345V30.1181H27.9023V0.890625ZM48.941 21.1052C48.941 25.6374 45.2328 25.9979 44.0998 25.9979C41.2671 25.9979 40.8551 23.3456 40.8551 21.749V10.4443H36.2972V21.7232C36.2714 24.5301 37.0697 26.8477 38.6148 28.3928C39.9796 29.7576 41.8852 30.5044 44.0998 30.5044C45.6706 30.5044 47.4989 30.0151 48.941 28.9335V30.1181H53.4989V10.4443H48.941V21.1052ZM63.3358 3.82625H58.7779V10.4443H55.5847V14.7447H58.7779V30.1181H63.3358V14.7447H67.0697V10.4443H63.3358V3.82625ZM81.7993 24.5301C80.7693 25.4571 79.4045 25.9722 77.9109 25.9722C74.6148 25.9722 72.1942 23.5516 72.1942 20.2297C72.1942 16.9078 74.5375 14.5902 77.9109 14.5902C79.3787 14.5902 80.7693 15.0795 81.8251 16.0065L82.5461 16.6245L85.7393 13.4314L84.941 12.7104C83.0611 11.0108 80.5633 10.058 77.9109 10.058C71.9882 10.058 67.6878 14.3327 67.6878 20.2039C67.6878 26.0494 72.0912 30.4786 77.9109 30.4786C80.6148 30.4786 83.1384 29.5258 84.9925 27.8005L85.765 27.0795L82.5204 23.8863L81.7993 24.5301ZM102.838 12.1696C101.473 10.8048 99.5676 10.058 97.353 10.058C95.7822 10.058 93.9539 10.5473 92.5118 11.6288V0.890625H87.9538V30.1181H92.5118V19.4571C92.5118 14.925 96.2199 14.5644 97.353 14.5644C100.186 14.5644 100.598 17.2168 100.598 18.8134V30.1181H105.156V18.8391C105.181 16.0323 104.383 13.7147 102.838 12.1696Z" fill="white"/>
<path id="Vector_2" d="M77.753 23.7053C79.6445 23.7053 81.1779 22.1719 81.1779 20.2804C81.1779 18.3888 79.6445 16.8555 77.753 16.8555C75.8615 16.8555 74.3281 18.3888 74.3281 20.2804C74.3281 22.1719 75.8615 23.7053 77.753 23.7053Z" fill="white"/>
<path id="Vector_3" d="M21.1534 23.1133C19.3508 24.9673 16.9045 25.9716 14.3293 25.9716C9.05038 25.9716 5.21347 21.8257 5.21347 16.1347C5.21347 10.418 9.05038 6.27206 14.3293 6.27206C16.8787 6.27206 19.2993 7.27635 21.1276 9.10468L21.8487 9.82571L25.016 6.65833L24.3208 5.9373C21.6942 3.23344 18.1405 1.76562 14.3293 1.76562C6.55252 1.76562 0.707031 7.94588 0.707031 16.1605C0.707031 24.3493 6.57828 30.5038 14.3293 30.5038C18.1663 30.5038 21.7199 29.0103 24.3465 26.3064L25.0418 25.5854L21.9002 22.3665L21.1534 23.1133Z" fill="white"/>
</g>
<defs>
<clipPath id="clip0_1_10621">
<rect width="104.987" height="30" fill="white" transform="translate(0.398438 0.710938)"/>
</clipPath>
</defs>
</svg>
