<svg width="91" height="31" viewBox="0 0 91 31" fill="none" xmlns="http://www.w3.org/2000/svg">
<g id="google-ar21 1" clip-path="url(#clip0_1_10613)">
<path id="Vector" d="M22.7925 11.4163H12.3823V14.5053H19.7659C19.4001 18.829 15.7972 20.6848 12.3948 20.6848C11.3169 20.6896 10.2489 20.4795 9.25309 20.067C8.25728 19.6544 7.35363 19.0476 6.5949 18.282C5.83617 17.5164 5.23757 16.6073 4.83403 15.6078C4.4305 14.6083 4.23012 13.5384 4.2446 12.4606C4.2446 7.78437 7.86488 4.18405 12.4048 4.18405C15.907 4.18405 17.9707 6.41658 17.9707 6.41658L20.1326 4.17656C20.1326 4.17656 17.3554 1.08594 12.2917 1.08594C5.84354 1.08594 0.855469 6.528 0.855469 12.4058C0.855469 18.1654 5.54753 23.7821 12.4547 23.7821C18.5303 23.7821 22.9779 19.6197 22.9779 13.4651C22.9779 12.1663 22.7892 11.4163 22.7892 11.4163H22.7925Z" fill="white"/>
<path id="Vector_2" d="M31.322 9.18052C27.0498 9.18052 23.9883 12.5206 23.9883 16.4144C23.9883 20.3673 26.9567 23.7689 31.3719 23.7689C35.368 23.7689 38.6415 20.7149 38.6415 16.4992C38.6415 11.6766 34.8333 9.17969 31.322 9.17969V9.18052ZM31.3635 12.0458C33.4639 12.0458 35.4544 13.7445 35.4544 16.4809C35.4544 19.1583 33.4722 20.9061 31.3536 20.9061C29.0254 20.9061 27.1961 19.0419 27.1961 16.4593C27.1961 13.9316 29.0088 12.0458 31.3702 12.0458H31.3635Z" fill="white"/>
<path id="Vector_3" d="M47.2673 9.18052C42.9951 9.18052 39.9336 12.5206 39.9336 16.4144C39.9336 20.3673 42.902 23.7689 47.3172 23.7689C51.3133 23.7689 54.5868 20.7149 54.5868 16.4992C54.5868 11.6766 50.7786 9.17969 47.2673 9.17969V9.18052ZM47.3089 12.0458C49.4092 12.0458 51.3998 13.7445 51.3998 16.4809C51.3998 19.1583 49.4175 20.9061 47.2989 20.9061C44.9707 20.9061 43.1415 19.0419 43.1415 16.4593C43.1415 13.9316 44.9541 12.0458 47.3155 12.0458H47.3089Z" fill="white"/>
<path id="Vector_4" d="M62.909 9.19141C58.9877 9.19141 55.9062 12.6254 55.9062 16.4802C55.9062 20.8704 59.4791 23.7823 62.8408 23.7823C64.9195 23.7823 66.0254 22.9566 66.8319 22.0096V23.448C66.8319 25.9649 65.3037 27.4724 62.9971 27.4724C60.7688 27.4724 59.6513 25.8153 59.2555 24.8757L56.4517 26.0398C57.4462 28.1434 59.4484 30.336 63.0204 30.336C66.9284 30.336 69.8901 27.8807 69.8901 22.7305V9.6296H66.8436V10.8652C65.904 9.85077 64.6169 9.19141 62.9107 9.19141H62.909ZM63.1917 12.0517C65.1141 12.0517 67.088 13.6931 67.088 16.496C67.088 19.3455 65.1174 20.9153 63.1493 20.9153C61.059 20.9153 59.1141 19.2191 59.1141 16.5226C59.1141 13.7222 61.1346 12.0517 63.1917 12.0517Z" fill="white"/>
<path id="Vector_5" d="M83.5072 9.17188C79.8087 9.17188 76.7031 12.1153 76.7031 16.4557C76.7031 21.0505 80.1646 23.7752 83.8539 23.7752C86.9404 23.7752 88.8428 22.0873 89.9653 20.574L87.4434 18.8961C86.789 19.9105 85.6948 20.9041 83.8697 20.9041C81.8192 20.9041 80.8763 19.7816 80.2918 18.6924L90.0725 14.6347L89.5737 13.4457C88.6291 11.1175 86.424 9.17188 83.5072 9.17188ZM83.6344 11.9773C84.9672 11.9773 85.9259 12.6857 86.3334 13.5355L79.8012 16.2653C79.5185 14.1516 81.5224 11.9773 83.6261 11.9773H83.6344Z" fill="white"/>
<path id="Vector_6" d="M72.0352 23.3434H75.248V1.84375H72.0352V23.3434Z" fill="white"/>
</g>
<defs>
<clipPath id="clip0_1_10613">
<rect width="89.7207" height="30" fill="white" transform="translate(0.464844 0.710938)"/>
</clipPath>
</defs>
</svg>
