<svg width="612" height="768" viewBox="0 0 612 768" fill="none" xmlns="http://www.w3.org/2000/svg">
<path d="M261.369 650.777V478.176C261.369 469.247 266.132 460.995 273.864 456.528L423.329 370.184C431.067 365.714 440.602 365.714 448.34 370.184L597.806 456.528C605.538 460.995 610.3 469.247 610.3 478.176V650.777C610.3 659.71 605.534 667.965 597.796 672.43L448.33 758.685C440.598 763.147 431.072 763.147 423.339 758.685L273.873 672.43C266.136 667.965 261.369 659.71 261.369 650.777Z" stroke="url(#paint0_linear_1_7)" strokeWidth="2"/>
<path d="M349.931 116.273L349.931 288.874C349.931 297.804 345.169 306.055 337.437 310.522L187.971 396.866C180.233 401.336 170.698 401.336 162.96 396.866L13.4946 310.522C5.76261 306.055 1.00001 297.804 1.00001 288.874L1.00003 116.273C1.00003 107.34 5.76687 99.0852 13.5043 94.62L162.97 8.36565C170.703 3.90315 180.229 3.90315 187.961 8.36565L337.427 94.6201C345.165 99.0852 349.931 107.34 349.931 116.273Z" stroke="url(#paint1_linear_1_7)" strokeWidth="2"/>
<defs>
<linearGradient id="paint0_linear_1_7" x1="435.835" y1="361.805" x2="435.835" y2="767.05" gradientUnits="userSpaceOnUse">
<stop stop-color="#6190A2"/>
<stop offset="1" stop-opacity="0"/>
</linearGradient>
<linearGradient id="paint1_linear_1_7" x1="175.466" y1="405.245" x2="175.466" y2="1.51779e-05" gradientUnits="userSpaceOnUse">
<stop stop-color="#6190A2"/>
<stop offset="1" stop-opacity="0"/>
</linearGradient>
</defs>
</svg>
